<?xml version="1.0" encoding="UTF-8"?>
<svg xmlns="http://www.w3.org/2000/svg" version="1.1" viewBox="0 0 168.7 99.8">
  <!-- Generator: Adobe Illustrator 28.7.1, SVG Export Plug-In . SVG Version: 1.2.0 Build 142)  -->
  <g>
    <g id="svg8">
      <g id="layer1">
        <path id="path861" d="M138.2,97.1l-2.6-2.7,8.9-8.9,8.9-8.9-2.6-2.6-2.6-2.6,2.3-2.3c1.3-1.3,2.4-2.3,2.5-2.3s3.6,3.5,7.9,7.7l7.7,7.7-2.4,2.4-2.4,2.4-2.6-2.6-2.6-2.6-8.9,8.9-8.9,8.9-2.6-2.7h0ZM14.6,97.1c-4.6-.8-9.1-3.8-11.9-8-3-4.6-3.5-10.7-1.4-15.5,1.6-3.5,4.9-7,8.3-8.7,2.8-1.4,4.8-1.8,8-1.7,4.4.2,8.1,1.9,11.3,5.1,5.5,5.6,6.7,13.3,3.1,19.8-3.5,6.3-10.8,10.1-17.4,8.9h0ZM21.4,88.8c1.8-.9,3.4-2.5,4.3-4.3.5-1,.6-1.5.6-3.6s0-2.5-.8-4c-.9-1.9-2.9-4-4.8-5-4.4-2.4-9.7-.8-12,3.5-1.9,3.6-1.3,7.6,1.7,10.8,3.1,3.4,7.4,4.4,11.1,2.6h0ZM120.5,79.4c-6.5-6.5-6.6-6.6-6.2-7.1.2-.3,5.3-5.4,11.3-11.4l10.9-10.9,6.7,6.7,6.7,6.7-2.4,2.4-2.4,2.4-4.1-4.1c-2.2-2.2-4.2-4.1-4.3-4.1-.3,0-4,3.7-3.9,3.9,0,.1,1.7,1.9,3.8,3.9l3.7,3.7-2.3,2.3-2.3,2.3-3.7-3.7c-2.1-2.1-3.8-3.7-3.9-3.7-.3,0-4.2,4-4.2,4.2s1.8,2,4,4.2,4,4.1,4,4.2c0,.3-4.3,4.7-4.6,4.7s-3.2-3-6.8-6.6h0ZM40.6,72.7c-1.5-.4-3.3-1.4-4.5-2.5l-.8-.7,2.5-2.5c1.4-1.4,2.6-2.5,2.7-2.5s.6.3,1.2.7c1.9,1.3,4,1.2,5.9-.5,2-1.8,2.4-3.7,1-5.2-.8-.9-.9-.9-2.5-.9-1.3,0-2.1.2-4.2,1-5.7,2.3-8.2,2.9-10.7,2.4-1.9-.4-3.2-1.1-4.5-2.6-3.5-3.9-3.1-9.2.8-13.4,1.9-2.1,3.5-3.2,5.4-3.8,2.9-1,6.3-.6,8.7,1,1.9,1.3,1.9,1.1-.8,3.8l-2.4,2.4-.9-.5c-1.7-1-3.7-.5-5.3,1.2-1.3,1.5-1.2,3.5.1,4.4,1,.6,2.4.4,5.8-.9,4.7-1.8,6.5-2.3,9.2-2.3,2.1,0,2.4,0,3.9.8,2.8,1.4,4.6,3.7,5.2,6.5,1.1,5.2-4.7,12.7-10.8,14.2-1.5.3-3.5.3-5-.1h0ZM106.6,65.6l-2.4-2.4,5.1-5.2c2.8-2.9,5.5-5.6,5.9-6,.5-.4.8-.8.7-.9s-1.8.7-3.8,1.7c-5.7,2.8-12,5.9-12.2,5.9s-1.2-1-2.5-2.2l-2.3-2.2,1.3-2.8c.7-1.5,2.2-4.5,3.2-6.7,2.9-6,3.2-6.8,3.1-6.8,0,0-2.7,2.5-6,5.8s-6,5.9-6.1,5.9-1.3-1.1-2.6-2.4l-2.4-2.4,11.4-11.4,11.4-11.4,3.4,3.4,3.4,3.4-5.1,10.1c-2.8,5.6-5.1,10.2-5.1,10.2s4.6-2.3,10.1-5.1l10.1-5.2,3.4,3.4,3.4,3.4-11.3,11.3c-6.2,6.2-11.4,11.3-11.5,11.3s-1.3-1.1-2.6-2.4h0ZM53,44.3l-11.3-11.3,2.5-2.5c1.4-1.4,2.6-2.5,2.7-2.5s4,3.8,8.7,8.5c4.7,4.7,8.6,8.5,8.7,8.5s1.9-1.8,4.1-4,4.1-4,4.2-4,1.4,1.1,2.7,2.5l2.5,2.5-6.8,6.8c-3.7,3.7-6.8,6.8-6.8,6.8s-5.2-5.1-11.4-11.3h0ZM76.4,33.6c-.7-.2-2.3-.9-3.6-1.5-1.9-.9-2.7-1.5-4.3-3.2-2.3-2.3-3.6-4.3-4.5-7.1-.5-1.7-.6-2.3-.6-4.9s0-3.2.7-4.9c.8-2.4,1.8-4,3.3-5.8,2.2-2.7,5.7-4.9,8.9-5.7,2.1-.5,5.8-.5,7.9,0,7.9,2,13.7,9.8,13.1,17.7-.4,7-5.6,13.3-12.5,15.3-2.2.7-6.2.7-8.3.2h0ZM82.9,26.1c2.6-.7,4.6-2.3,5.9-4.9.5-.9.6-1.4.6-3.5s0-2.5-.8-4c-1.9-3.9-6.1-6.5-10-6.1-2.9.3-5.8,2.3-7.1,4.9-.6,1.2-.7,1.6-.7,3.8s0,2.5.8,4c1.3,2.9,4.5,5.4,7.3,5.9,1.6.3,2.4.3,3.9-.1h0Z"/>
      </g>
    </g>
  </g>
</svg>